<svg width="279" height="64" viewBox="0 0 279 64" fill="none" xmlns="http://www.w3.org/2000/svg">
<g clip-path="url(#clip0_51_190)">
<path d="M7.20953 30.4649C7.20953 25.7161 11.8708 23.518 16.4421 23.518C20.6633 23.518 25.147 25.1884 26.995 29.6746L31.8313 26.8613C29.2807 21.4098 23.6541 17.8914 16.4421 17.8914C7.64964 17.8914 1.40543 23.4304 1.40543 30.4649C1.40543 46.6444 27.0825 40.4026 27.0825 51.3056C27.0825 56.4946 22.1587 58.3401 16.9697 58.3401C11.0781 58.3401 6.50438 55.4368 4.92388 50.9531L0 53.8539C2.19812 59.4805 8.17728 63.9667 16.9722 63.9667C26.3798 63.9667 32.8891 58.7778 32.8891 51.3032C32.8891 35.1237 7.21196 41.3655 7.21196 30.4624L7.20953 30.4649Z" fill="white"/>
<path d="M267.881 0C262.086 0 257.374 4.71233 257.374 10.5067C257.374 16.3011 262.086 21.0134 267.881 21.0134C273.675 21.0134 278.387 16.3011 278.387 10.5067C278.387 4.71233 273.675 0 267.881 0ZM267.881 15.3503C265.211 15.3503 263.037 13.1765 263.037 10.5067C263.037 7.83687 265.211 5.66307 267.881 5.66307C270.551 5.66307 272.724 7.83687 272.724 10.5067C272.724 13.1765 270.551 15.3503 267.881 15.3503Z" fill="#0064FF"/>
<path d="M168.392 17.8716C161.455 17.8716 155.23 20.9548 150.999 25.8179V19.0095H145.336V62.8454H150.999V40.9275C150.999 31.3375 158.802 23.5346 168.392 23.5346V17.8716Z" fill="white"/>
<path d="M128.86 25.8206C124.629 20.9575 118.404 17.8743 111.467 17.8743C98.7549 17.8743 88.4111 28.2156 88.4111 40.9302C88.4111 53.6447 98.7525 63.9861 111.467 63.9861C118.404 63.9861 124.629 60.9029 128.86 56.0398V62.8481H134.523V19.0098H128.86V25.8181V25.8206ZM111.469 58.3206C101.879 58.3206 94.0766 50.5178 94.0766 40.9277C94.0766 31.3377 101.879 23.5349 111.469 23.5349C121.059 23.5349 128.862 31.3377 128.862 40.9277C128.862 50.5178 121.059 58.3206 111.469 58.3206Z" fill="white"/>
<path d="M60.5798 58.3207C54.0074 58.3207 48.2762 54.6563 45.3195 49.2607H39.0898C42.4381 57.866 50.805 63.9837 60.5798 63.9837C68.6988 63.9837 75.8451 59.7626 79.9544 53.4017L75.0767 50.5251C71.9595 55.218 66.6271 58.3207 60.5823 58.3207H60.5798Z" fill="white"/>
<path d="M60.5798 17.8716C48.8257 17.8716 39.1069 26.7151 37.7039 38.0947C37.5896 39.0236 37.5239 39.967 37.5239 40.9251C37.5239 41.8296 37.5823 42.7195 37.6844 43.5949L37.7039 43.7554H83.4509C83.4509 43.7554 83.4631 43.6824 83.4752 43.5949C83.5774 42.7171 83.6357 41.8296 83.6357 40.9251C83.6357 39.967 83.5701 39.0236 83.4558 38.0947C82.0552 26.7127 72.3339 17.8716 60.5798 17.8716ZM43.4229 38.0972C44.7797 29.8494 51.9551 23.5371 60.5798 23.5371C69.2045 23.5371 76.3824 29.8494 77.7368 38.0972H43.4204H43.4229Z" fill="white"/>
<path d="M237.005 58.3207C230.433 58.3207 224.702 54.6563 221.745 49.2607H215.515C218.863 57.866 227.23 63.9837 237.005 63.9837C245.124 63.9837 252.27 59.7626 256.38 53.4017L251.502 50.5251C248.385 55.218 243.052 58.3207 237.008 58.3207H237.005Z" fill="white"/>
<path d="M237.005 17.8716C225.251 17.8716 215.532 26.7151 214.129 38.0947C214.015 39.0236 213.949 39.967 213.949 40.9251C213.949 41.8296 214.008 42.7195 214.11 43.5949L214.129 43.7554H259.876C259.876 43.7554 259.888 43.6824 259.901 43.5949C260.003 42.7171 260.061 41.8296 260.061 40.9251C260.061 39.967 259.995 39.0236 259.881 38.0947C258.481 26.7127 248.759 17.8716 237.005 17.8716ZM219.848 38.0972C221.205 29.8494 228.38 23.5371 237.005 23.5371C245.63 23.5371 252.808 29.8494 254.162 38.0972H219.846H219.848Z" fill="white"/>
<path d="M190.094 58.3203C180.504 58.3203 172.701 50.5175 172.701 40.9275C172.701 31.3375 180.504 23.5346 190.094 23.5346C196.403 23.5346 201.938 26.9121 204.987 31.9527L209.891 29.1248C205.862 22.3894 198.497 17.8716 190.096 17.8716C177.384 17.8716 167.04 28.2129 167.04 40.9275C167.04 53.642 177.381 63.9834 190.096 63.9834C198.553 63.9834 205.957 59.4024 209.969 52.5965L205.077 49.7491C202.047 54.8748 196.469 58.3203 190.096 58.3203H190.094Z" fill="white"/>
</g>
<defs>
<clipPath id="clip0_51_190">
<rect width="278.388" height="63.9837" fill="white"/>
</clipPath>
</defs>
</svg>
